<?xml version="1.0" encoding="UTF-8"?>
<svg width="24px" height="24px" viewBox="0 0 24 24" version="1.1" xmlns="http://www.w3.org/2000/svg" xmlns:xlink="http://www.w3.org/1999/xlink">
    <title>PDF Icon</title>
    <g stroke="none" stroke-width="1" fill="none" fill-rule="evenodd">
        <path d="M20,2 L8,2 C6.9,2 6,2.9 6,4 L6,16 C6,17.1 6.9,18 8,18 L20,18 C21.1,18 22,17.1 22,16 L22,4 C22,2.9 21.1,2 20,2 Z" fill="#FF0000" fill-rule="nonzero"></path>
        <path d="M4,6 L2,6 L2,20 C2,21.1 2.9,22 4,22 L18,22 L18,20 L4,20 L4,6 Z" fill="#FF0000" fill-rule="nonzero"></path>
        <path d="M12.9,9.1 C12.9,8.5 12.5,8 11.9,8 L10,8 L10,14 L11,14 L11,11.5 L11.9,11.5 C12.5,11.5 12.9,11 12.9,10.4 L12.9,9.1 Z M11.9,10.5 L11,10.5 L11,9 L11.9,9 C12.1,9 12.1,9.3 12.1,9.5 L12.1,10 C12,10.2 12,10.5 11.9,10.5 Z" fill="#FFFFFF" fill-rule="nonzero"></path>
        <path d="M15,14 L15,12.5 L17.5,8 L16.4,8 L14.8,11 L14.8,11 L13.2,8 L12,8 L14.5,12.5 L14.5,14 L15,14 Z" fill="#FFFFFF" fill-rule="nonzero"></path>
    </g>
</svg>